<svg width="50" height="50" viewBox="0 0 50 50" fill="none" xmlns="http://www.w3.org/2000/svg">
<g clip-path="url(#clip0_813_9514)">
<path fill-rule="evenodd" clip-rule="evenodd" d="M40.4796 7.43799C43.2057 10.8369 44.8369 15.1527 44.8369 19.8499C44.8369 29.7736 37.5592 37.9962 28.0532 39.4658V33.4869C34.2966 32.0933 38.9637 26.5174 38.9637 19.8499C38.9637 17.2623 38.2602 14.8393 37.035 12.761L36.9706 12.6533L40.8135 7.86611C40.7042 7.7218 40.5928 7.57912 40.4796 7.43799Z" fill="#0D1E4A"/>
<path fill-rule="evenodd" clip-rule="evenodd" d="M9.56287 7.45605C6.83679 10.855 5.20557 15.1708 5.20557 19.868C5.20557 27.8568 9.92198 34.7432 16.7205 37.8915C18.3671 38.6541 20.1358 39.1973 21.9893 39.4839V33.505C21.5029 33.3964 21.026 33.2625 20.5602 33.1046C15.047 31.236 11.0788 26.016 11.0788 19.868C11.0788 17.2804 11.7823 14.8573 13.0074 12.7791L13.0719 12.6714L9.22893 7.88417C9.33829 7.73986 9.44967 7.59718 9.56287 7.45605Z" fill="#0D1E4A"/>
<path fill-rule="evenodd" clip-rule="evenodd" d="M19.8271 42.8892H42.9416V49.0001H22.9721L19.8271 42.8892Z" fill="#0D1E4A"/>
<path fill-rule="evenodd" clip-rule="evenodd" d="M24.9999 0C31.4563 0 37.1913 3.08719 40.8137 7.86603L36.9716 12.6541C34.5287 8.59344 30.0816 5.87702 24.9999 5.87702C17.288 5.87702 11.0362 12.1329 11.0362 19.8498C11.0362 26.0149 15.0266 31.2463 20.5638 33.1014L16.72 37.8916L17.0461 37.485L5.6688 15.3773L5.66553 15.3916C7.68762 6.57588 15.5763 0 24.9999 0Z" fill="#3D6EA7"/>
<path fill-rule="evenodd" clip-rule="evenodd" d="M7.05786 42.8892H19.827L22.9719 49.0001H7.05786V42.8892Z" fill="#3D6EA7"/>
<path fill-rule="evenodd" clip-rule="evenodd" d="M16.7198 37.8914C9.89901 34.7519 5.16284 27.8549 5.16284 19.8499C5.16284 18.3119 5.33778 16.8149 5.66853 15.3774L17.0459 37.485L16.7198 37.8914Z" fill="#7EBBED"/>
</g>
<defs>
<clipPath id="clip0_813_9514">
<rect width="50" height="50" fill="white"/>
</clipPath>
</defs>
</svg>
