<svg width="24" height="24" viewBox="0 0 24 24" fill="none" xmlns="http://www.w3.org/2000/svg">
<path d="M12.0684 20H6.36077C5.99779 19.9976 5.65056 19.8415 5.3954 19.5662C5.14024 19.2908 4.99803 18.9186 5.00002 18.5314V5.46857C4.99859 5.08138 5.14114 4.70939 5.39641 4.43411C5.65168 4.15883 5.99885 4.00272 6.36184 4H16.635C16.9983 4.00302 17.3457 4.15973 17.6008 4.43572C17.856 4.71171 17.998 5.08442 17.9957 5.472V12.7177C17.9988 12.7897 17.9883 12.8615 17.9646 12.929C17.9409 12.9964 17.9047 13.0581 17.8581 13.1101C17.8115 13.1622 17.7554 13.2037 17.6934 13.232C17.6313 13.2603 17.5645 13.275 17.497 13.275C17.4294 13.275 17.3626 13.2603 17.3005 13.232C17.2385 13.2037 17.1824 13.1622 17.1358 13.1101C17.0892 13.0581 17.053 12.9964 17.0293 12.929C17.0056 12.8615 16.9951 12.7897 16.9982 12.7177V5.47429C16.9999 5.36919 16.9626 5.26764 16.8943 5.19183C16.826 5.11602 16.7324 5.07211 16.6339 5.06971H6.36291C6.31428 5.07061 6.26628 5.08173 6.22168 5.10244C6.17708 5.12316 6.13675 5.15306 6.10301 5.19043C6.06927 5.22781 6.04277 5.27192 6.02504 5.32023C6.00731 5.36855 5.9987 5.42012 5.99969 5.472V18.5349C5.99812 18.5865 6.0062 18.6379 6.02347 18.6861C6.04074 18.7343 6.06684 18.7784 6.10026 18.8157C6.13368 18.8531 6.17374 18.883 6.2181 18.9036C6.26246 18.9243 6.31023 18.9353 6.35863 18.936H12.0684C12.1967 18.9422 12.3178 19.0009 12.4066 19.0998C12.4954 19.1988 12.545 19.3305 12.5451 19.4675C12.5453 19.6044 12.4959 19.7362 12.4073 19.8354C12.3188 19.9346 12.1978 19.9935 12.0695 20H12.0684ZM15.3556 9.26857H7.64223C7.50967 9.26857 7.38253 9.2124 7.2888 9.11242C7.19506 9.01243 7.1424 8.87683 7.1424 8.73543C7.1424 8.59403 7.19506 8.45842 7.2888 8.35844C7.38253 8.25846 7.50967 8.20229 7.64223 8.20229H15.3567C15.4893 8.20229 15.6164 8.25846 15.7102 8.35844C15.8039 8.45842 15.8566 8.59403 15.8566 8.73543C15.8566 8.87683 15.8039 9.01243 15.7102 9.11242C15.6164 9.2124 15.4893 9.26857 15.3567 9.26857H15.3556ZM11.927 12.0686H7.64223C7.50967 12.0686 7.38253 12.0124 7.2888 11.9124C7.19506 11.8124 7.1424 11.6768 7.1424 11.5354C7.1424 11.394 7.19506 11.2584 7.2888 11.1584C7.38253 11.0585 7.50967 11.0023 7.64223 11.0023H11.927C11.9926 11.0023 12.0575 11.0161 12.1181 11.0428C12.1786 11.0696 12.2337 11.1088 12.28 11.1583C12.3264 11.2077 12.3632 11.2664 12.3883 11.3311C12.4134 11.3957 12.4263 11.4649 12.4263 11.5349C12.4263 11.6048 12.4134 11.674 12.3883 11.7387C12.3632 11.8033 12.3264 11.862 12.28 11.9114C12.2337 11.9609 12.1786 12.0001 12.1181 12.0269C12.0575 12.0537 11.9926 12.0674 11.927 12.0674V12.0686ZM14.9271 19.0674C13.2342 19.0674 11.8563 17.5703 11.8563 15.7349C11.8563 15.5935 11.9089 15.4579 12.0027 15.3579C12.0964 15.2579 12.2235 15.2017 12.3561 15.2017C12.4887 15.2017 12.6158 15.2579 12.7095 15.3579C12.8033 15.4579 12.8559 15.5935 12.8559 15.7349C12.8559 16.9851 13.786 18.0023 14.9249 18.0023C15.2164 18.0023 15.4981 17.936 15.7628 17.808C15.8823 17.7567 16.0157 17.7566 16.1353 17.8076C16.2549 17.8586 16.3514 17.9568 16.4048 18.0818C16.4582 18.2068 16.4644 18.3489 16.4221 18.4787C16.3797 18.6084 16.2921 18.7157 16.1775 18.7783C15.7832 18.9691 15.3631 19.0674 14.9271 19.0674ZM17.4986 16.2674C17.3661 16.2674 17.2391 16.2113 17.1455 16.1114C17.0519 16.0116 16.9993 15.8761 16.9993 15.7349C16.9993 14.4846 16.0692 13.4674 14.9292 13.4674C14.656 13.4674 14.387 13.5246 14.1363 13.6389C14.0159 13.6861 13.8831 13.6822 13.7652 13.628C13.6474 13.5737 13.5537 13.4733 13.5033 13.3474C13.453 13.2215 13.4499 13.0798 13.4947 12.9515C13.5395 12.8233 13.6288 12.7183 13.7442 12.6583C14.1189 12.4885 14.522 12.4015 14.9292 12.4023C16.6221 12.4023 18 13.8994 18 15.7349C17.9992 15.8762 17.946 16.0115 17.8521 16.1112C17.7582 16.211 17.6311 16.2671 17.4986 16.2674ZM14.0699 14.4H13.2117C13.1269 14.4 13.0435 14.3768 12.9695 14.3328C12.8954 14.2888 12.8331 14.2254 12.7884 14.1486C12.7438 14.0717 12.7181 13.9841 12.7136 13.8938C12.7091 13.8035 12.726 13.7135 12.7627 13.632L13.1913 12.6971C13.2317 12.6066 13.2953 12.5302 13.3747 12.4766C13.4542 12.4231 13.5463 12.3947 13.6402 12.3947C13.7342 12.3947 13.8263 12.4231 13.9057 12.4766C13.9852 12.5302 14.0488 12.6066 14.0892 12.6971L14.5178 13.632C14.5553 13.7132 14.5728 13.8033 14.5685 13.8937C14.5642 13.9841 14.5382 14.0719 14.4931 14.1486C14.4488 14.2257 14.3865 14.2894 14.3124 14.3334C14.2383 14.3775 14.1547 14.4004 14.0699 14.4ZM16.2053 19.2137H16.1882C16.1032 19.2112 16.0203 19.1855 15.9474 19.1391C15.8744 19.0927 15.8138 19.0271 15.7714 18.9486L15.3428 18.1577C15.3007 18.0793 15.2779 17.9909 15.2766 17.9006C15.2753 17.8102 15.2955 17.7211 15.3354 17.6413C15.3752 17.5616 15.4333 17.494 15.5043 17.4448C15.5753 17.3956 15.6569 17.3664 15.7414 17.36L16.7132 17.288C16.9039 17.2754 17.0839 17.3794 17.1803 17.5531C17.227 17.6396 17.2502 17.7383 17.2471 17.838C17.2441 17.9378 17.215 18.0346 17.1632 18.1177L16.62 18.9794C16.5741 19.0517 16.5124 19.1109 16.44 19.1518C16.3677 19.1926 16.2871 19.2139 16.2053 19.2137Z" fill="black"/>
</svg>
