<svg width="24" height="24" viewBox="0 0 24 24" fill="none" xmlns="http://www.w3.org/2000/svg">
<path d="M20.6575 10.8428C20.5289 10.7571 20.3146 10.7999 20.186 10.8856L16.886 13.4999V11.0142C16.886 10.8428 16.8003 10.7142 16.6718 10.6285C16.5432 10.5428 16.3718 10.5856 16.2432 10.6714L12.2146 13.5856L12.0003 10.8856C12.0003 10.7571 11.9146 10.5856 11.786 10.5428C11.6575 10.4571 11.486 10.4999 11.3575 10.5428L6.51462 13.4571V9.51422C6.81462 9.34279 7.07176 9.1285 7.24319 8.8285C7.45748 8.91422 7.71462 8.91422 7.97176 8.91422C8.91462 8.91422 9.72891 8.39993 10.1575 7.6285C10.286 7.6285 10.4146 7.67136 10.586 7.67136C12.3432 7.67136 13.7575 6.25707 13.7575 4.49993C13.7575 2.74279 12.3432 1.28564 10.586 1.28564C9.00034 1.28564 7.71462 2.39993 7.45748 3.94279C6.34319 4.15707 5.52891 5.09993 5.44319 6.25707C4.62891 6.38564 3.98605 7.11422 3.98605 7.97136C3.98605 8.01422 3.98605 8.05707 3.98605 8.05707H3.55748C3.30033 8.05707 3.12891 8.2285 3.12891 8.48564V22.2856C3.12891 22.5428 3.30033 22.7142 3.55748 22.7142H20.486C20.7432 22.7142 20.9146 22.5428 20.9146 22.2856V11.2285C20.8718 11.0571 20.786 10.9285 20.6575 10.8428ZM4.84319 7.97136C4.84319 7.45707 5.22891 7.07136 5.74319 7.07136C5.78605 7.07136 5.82891 7.07136 5.87176 7.07136C6.00033 7.07136 6.12891 7.0285 6.21462 6.94279C6.30033 6.85707 6.34319 6.7285 6.34319 6.59993C6.34319 6.51422 6.34319 6.47136 6.34319 6.38564C6.34319 5.5285 7.02891 4.75707 7.88605 4.71422C8.10033 4.71422 8.27176 4.54279 8.27176 4.3285C8.31462 3.08564 9.34319 2.14279 10.586 2.14279C11.8718 2.14279 12.9003 3.17136 12.9003 4.49993C12.9003 5.78564 11.8718 6.81422 10.586 6.81422C10.4146 6.81422 10.2003 6.77136 10.0289 6.7285C9.81462 6.68564 9.60033 6.77136 9.51462 6.98564C9.25748 7.6285 8.65748 8.05707 7.97176 8.05707C7.71462 8.05707 7.45748 8.01422 7.20033 7.88564C7.07176 7.84279 6.94319 7.84279 6.81462 7.88564C6.68605 7.9285 6.60033 8.05707 6.55748 8.18564C6.55748 8.27136 6.51462 8.35707 6.47176 8.44279C6.42891 8.2285 6.25748 8.09993 6.04319 8.09993H4.80033C4.84319 8.05707 4.84319 8.01422 4.84319 7.97136ZM4.50033 8.91422H5.65748V9.59993H3.98605V8.91422H4.50033ZM20.0146 21.8571H3.98605V10.4999H5.65748V14.2285C5.65748 14.3999 5.74319 14.5285 5.87176 14.6142C6.00033 14.6999 6.17176 14.6999 6.30033 14.6142L11.186 11.6999L11.4003 14.4428C11.4003 14.6142 11.486 14.7428 11.6575 14.7856C11.786 14.8714 11.9575 14.8285 12.086 14.7428L16.0718 11.8714V14.3999C16.0718 14.5714 16.1575 14.6999 16.3289 14.7856C16.4575 14.8714 16.6718 14.8285 16.8003 14.7428L20.1003 12.1285V21.8571H20.0146Z" fill="black"/>
<path d="M17.2713 20.5716H19.1142C19.3713 20.5716 19.5428 20.4002 19.5428 20.143V18.3002C19.5428 18.043 19.3713 17.8716 19.1142 17.8716H17.2713C17.0142 17.8716 16.8428 18.043 16.8428 18.3002V20.143C16.8428 20.4002 17.0142 20.5716 17.2713 20.5716ZM17.6999 18.7287H18.6856V19.7144H17.6999V18.7287Z" fill="black"/>
<path d="M11.872 17.8716H10.0292C9.77201 17.8716 9.60059 18.043 9.60059 18.3002V20.143C9.60059 20.4002 9.77201 20.5716 10.0292 20.5716H11.872C12.1292 20.5716 12.3006 20.4002 12.3006 20.143V18.3002C12.3006 18.0859 12.0863 17.8716 11.872 17.8716ZM11.4434 19.7144H10.4577V18.7287H11.4434V19.7144Z" fill="black"/>
<path d="M8.27143 15.5571H6.42857C6.17143 15.5571 6 15.7286 6 15.9857V17.8286C6 18.0857 6.17143 18.2571 6.42857 18.2571H8.27143C8.52857 18.2571 8.7 18.0857 8.7 17.8286V15.9857C8.7 15.7714 8.48571 15.5571 8.27143 15.5571ZM7.84286 17.4428H6.85714V16.4571H7.84286V17.4428Z" fill="black"/>
<path d="M15.4716 15.5571H13.6288C13.3716 15.5571 13.2002 15.7286 13.2002 15.9857V17.8286C13.2002 18.0857 13.3716 18.2571 13.6288 18.2571H15.4716C15.7288 18.2571 15.9002 18.0857 15.9002 17.8286V15.9857C15.9002 15.7714 15.7288 15.5571 15.4716 15.5571ZM15.0431 17.4428H14.0573V16.4571H15.0431V17.4428Z" fill="black"/>
</svg>
