<svg width="24" height="24" viewBox="0 0 24 24" fill="none" xmlns="http://www.w3.org/2000/svg">
<path d="M22.5 4V7.5H21.5V4C21.4995 3.60234 21.3413 3.22111 21.0601 2.93992C20.7789 2.65873 20.3977 2.50053 20 2.5H16.5V1.5H20C20.6628 1.50079 21.2982 1.76444 21.7669 2.23311C22.2356 2.70178 22.4992 3.3372 22.5 4ZM4 21.5C3.60234 21.4995 3.22111 21.3413 2.93992 21.0601C2.65873 20.7789 2.50053 20.3977 2.5 20V16.5H1.5V20C1.50079 20.6628 1.76444 21.2982 2.23311 21.7669C2.70178 22.2356 3.3372 22.4992 4 22.5H7.5V21.5H4ZM21.5 20C21.4995 20.3977 21.3413 20.7789 21.0601 21.0601C20.7789 21.3413 20.3977 21.4995 20 21.5H16.5V22.5H20C20.6628 22.4992 21.2982 22.2356 21.7669 21.7669C22.2356 21.2982 22.4992 20.6628 22.5 20V16.5H21.5V20ZM2.5 4C2.50053 3.60234 2.65873 3.22111 2.93992 2.93992C3.22111 2.65873 3.60234 2.50053 4 2.5H7.5V1.5H4C3.3372 1.50079 2.70178 1.76444 2.23311 2.23311C1.76444 2.70178 1.50079 3.3372 1.5 4V7.5H2.5V4ZM9.5 18.5V5.5H8.5V18.5H9.5ZM5.5 5.5V18.5H7.5V5.5H5.5ZM13.5 18.5V5.5H11.5V18.5H13.5ZM16.5 5.5V18.5H18.5V5.5H16.5ZM14.5 5.5V18.5H15.5V5.5H14.5Z" fill="black"/>
</svg>
