<svg width="24" height="24" viewBox="0 0 24 24" fill="none" xmlns="http://www.w3.org/2000/svg">
<g clip-path="url(#clip0_265_6699)">
<path d="M12 16C12.3956 16 12.7822 16.1173 13.1111 16.3371C13.44 16.5568 13.6964 16.8692 13.8478 17.2346C13.9991 17.6001 14.0387 18.0022 13.9616 18.3902C13.8844 18.7781 13.6939 19.1345 13.4142 19.4142C13.1345 19.6939 12.7781 19.8844 12.3902 19.9616C12.0022 20.0387 11.6001 19.9991 11.2346 19.8478C10.8692 19.6964 10.5568 19.44 10.3371 19.1111C10.1173 18.7822 10 18.3956 10 18C10 17.4696 10.2107 16.9609 10.5858 16.5858C10.9609 16.2107 11.4696 16 12 16ZM10 6C10 6.39556 10.1173 6.78224 10.3371 7.11114C10.5568 7.44004 10.8692 7.69638 11.2346 7.84776C11.6001 7.99913 12.0022 8.03874 12.3902 7.96157C12.7781 7.8844 13.1345 7.69392 13.4142 7.41421C13.6939 7.13451 13.8844 6.77814 13.9616 6.39018C14.0387 6.00222 13.9991 5.60009 13.8478 5.23463C13.6964 4.86918 13.44 4.55682 13.1111 4.33706C12.7822 4.1173 12.3956 4 12 4C11.4696 4 10.9609 4.21071 10.5858 4.58579C10.2107 4.96086 10 5.46957 10 6ZM10 12C10 12.3956 10.1173 12.7822 10.3371 13.1111C10.5568 13.44 10.8692 13.6964 11.2346 13.8478C11.6001 13.9991 12.0022 14.0387 12.3902 13.9616C12.7781 13.8844 13.1345 13.6939 13.4142 13.4142C13.6939 13.1345 13.8844 12.7781 13.9616 12.3902C14.0387 12.0022 13.9991 11.6001 13.8478 11.2346C13.6964 10.8692 13.44 10.5568 13.1111 10.3371C12.7822 10.1173 12.3956 10 12 10C11.4696 10 10.9609 10.2107 10.5858 10.5858C10.2107 10.9609 10 11.4696 10 12Z" fill="black"/>
</g>
<defs>
<clipPath id="clip0_265_6699">
<rect width="24" height="24" fill="white"/>
</clipPath>
</defs>
</svg>
